<?xml version="1.0" encoding="utf-8"?>
<!-- Generator: Adobe Illustrator 22.0.1, SVG Export Plug-In . SVG Version: 6.00 Build 0)  -->
<svg version="1.1" id="Layer_1" xmlns="http://www.w3.org/2000/svg" xmlns:xlink="http://www.w3.org/1999/xlink" x="0px" y="0px"
	 width="156px" height="37px" viewBox="0 0 156 37" style="enable-background:new 0 0 156 37;" xml:space="preserve">
<style type="text/css">
	.st0{clip-path:url(#SVGID_2_);fill:url(#SVGID_3_);}
	.st1{clip-path:url(#SVGID_5_);fill:url(#SVGID_6_);}
	.st2{fill:#FFFFFF;}
</style>
<g>
	<defs>
		<path id="SVGID_1_" d="M35.1,3.4l8.7,15.1l-8.7,15.1H17.6L8.9,18.5l8.7-15.1H35.1z M37,0h-2H17.6h-2l-1,1.7L6,16.8l-1,1.7l1,1.7
			l8.7,15.1l1,1.7h2h17.4h2l1-1.7l8.7-15.1l1-1.7l-1-1.7L38,1.7L37,0z"/>
	</defs>
	<clipPath id="SVGID_2_">
		<use xlink:href="#SVGID_1_"  style="overflow:visible;"/>
	</clipPath>
	
		<linearGradient id="SVGID_3_" gradientUnits="userSpaceOnUse" x1="-1200.5128" y1="738.2051" x2="-1200.3347" y2="738.2051" gradientTransform="matrix(0 -260.4127 -260.4127 0 192264.3125 -312582.6875)">
		<stop  offset="0" style="stop-color:#ED1C25"/>
		<stop  offset="1" style="stop-color:#901824"/>
	</linearGradient>
	<rect x="5" class="st0" width="42.7" height="37"/>
</g>
<g>
	<defs>
		<polygon id="SVGID_4_" points="38.8,18.5 32.6,29.3 20.1,29.3 17.6,25 30.1,25 32.6,20.7 15.1,20.7 13.9,18.5 15.1,16.3 
			32.6,16.3 30.1,12 17.6,12 20.1,7.7 32.6,7.7 		"/>
	</defs>
	<clipPath id="SVGID_5_">
		<use xlink:href="#SVGID_4_"  style="overflow:visible;"/>
	</clipPath>
	
		<linearGradient id="SVGID_6_" gradientUnits="userSpaceOnUse" x1="-1200.5128" y1="738.2051" x2="-1200.3347" y2="738.2051" gradientTransform="matrix(0 -260.4127 -260.4127 0 192264.3125 -312582.6875)">
		<stop  offset="0" style="stop-color:#ED1C25"/>
		<stop  offset="1" style="stop-color:#901824"/>
	</linearGradient>
	<rect x="13.9" y="7.7" class="st1" width="24.9" height="21.6"/>
</g>
<g>
	<path class="st2" d="M69.5,22.6c0,0.2-0.1,0.2-0.2,0.2H55.6v2.5c0,3.7,2.9,5.8,6.4,5.8c3,0,5-1.4,6.5-2.7c0.1-0.1,0.2-0.1,0.3,0
		l0.4,0.5c0.1,0.1,0.1,0.2,0,0.3c-1.6,1.5-4,2.9-7.2,2.9c-4,0-7.6-2.6-7.6-7v-6.2c0-4.6,3.1-7.3,7.6-7.3c4.5,0,7.6,2.6,7.6,7.3V22.6
		z M61.9,13.1c-3.9,0-6.4,2.2-6.4,6.1v2.6h12.8v-2.6C68.3,15.3,65.8,13.1,61.9,13.1z"/>
	<path class="st2" d="M79.1,32.4c-2.9,0-4.9-1.8-4.9-6.3V4.9c0-0.2,0.1-0.2,0.2-0.2h0.8c0.2,0,0.2,0.1,0.2,0.2v21.3
		c0,3.6,1.4,5,3.7,5c0.5,0,1.4,0,2.2-0.2c0.2,0,0.2,0,0.2,0.2v0.6c0,0.2-0.1,0.3-0.2,0.3C80.7,32.3,79.8,32.4,79.1,32.4z"/>
	<path class="st2" d="M97.5,4.9c0-0.2,0.1-0.2,0.2-0.2h0.7c0.2,0,0.3,0.1,0.3,0.2v25.9c0,0.1-0.1,0.2-0.2,0.3
		c-2.1,0.8-4.5,1.3-7,1.3c-5,0-8.1-2.5-8.1-8.1v-4.1c0-5.5,3.1-8.2,8.1-8.2c2.2,0,4.3,0.7,6,1.8V4.9z M91.6,31.3
		c2.1,0,4.2-0.4,5.9-1V14.9c-1.7-1.1-3.8-1.8-5.9-1.8c-4.4,0-6.9,2.1-6.9,7v4.1C84.7,29.2,87.2,31.3,91.6,31.3z"/>
	<path class="st2" d="M119.1,22.6c0,0.2-0.1,0.2-0.2,0.2h-13.8v2.5c0,3.7,2.9,5.8,6.4,5.8c3,0,5-1.4,6.5-2.7c0.1-0.1,0.2-0.1,0.3,0
		l0.4,0.5c0.1,0.1,0.1,0.2,0,0.3c-1.6,1.5-4,2.9-7.2,2.9c-4,0-7.6-2.6-7.6-7v-6.2c0-4.6,3.1-7.3,7.6-7.3c4.5,0,7.6,2.6,7.6,7.3V22.6
		z M111.5,13.1c-3.9,0-6.4,2.2-6.4,6.1v2.6h12.8v-2.6C117.8,15.3,115.3,13.1,111.5,13.1z"/>
	<path class="st2" d="M124.1,32c-0.1,0-0.2-0.1-0.2-0.2V13.5c0-0.1,0.1-0.2,0.2-0.3c1.8-0.9,4.2-1.3,6.4-1.3c1.3,0,2.6,0.2,3.9,0.3
		c0.2,0,0.2,0.1,0.2,0.3v0.6c0,0.2-0.1,0.2-0.2,0.2c-1.2-0.2-2.5-0.3-3.8-0.3c-1.8,0-3.8,0.3-5.5,1v17.7c0,0.2-0.1,0.2-0.2,0.2
		H124.1z"/>
	<path class="st2" d="M143.8,32.4c-2.8,0-5.2-0.8-7.3-2.4c-0.2-0.1-0.2-0.2-0.1-0.3l0.4-0.6c0.1-0.1,0.2-0.2,0.3,0
		c2,1.5,4.1,2.3,6.7,2.3c3.6,0,6-1.5,6-4.4c0-3.1-3.2-3.8-6-4.4c-3.1-0.6-7-1.8-7-5.6c0-3.1,2.9-5,6.7-5c2.8,0,4.8,0.8,6.7,1.9
		c0.1,0.1,0.2,0.2,0.1,0.3l-0.3,0.6c0,0.1-0.2,0.2-0.3,0.1c-1.8-1-3.9-1.7-6.2-1.7c-3.2,0-5.5,1.4-5.5,3.8c0,3,3.1,3.9,6.1,4.5
		c3.4,0.7,7,1.6,7,5.5C151,30.1,148.5,32.4,143.8,32.4z"/>
</g>
</svg>
